<svg xmlns="http://www.w3.org/2000/svg" version="1.1" xmlns:xlink="http://www.w3.org/1999/xlink" xmlns:svgjs="http://svgjs.dev/svgjs" width="1000" height="1000"><style>
    #light-icon {
      display: inline;
    }
    #dark-icon {
      display: none;
    }

    @media (prefers-color-scheme: dark) {
      #light-icon {
        display: none;
      }
      #dark-icon {
        display: inline;
      }
    }
  </style><g id="light-icon"><svg xmlns="http://www.w3.org/2000/svg" version="1.1" xmlns:xlink="http://www.w3.org/1999/xlink" xmlns:svgjs="http://svgjs.dev/svgjs" width="1000" height="1000"><g clip-path="url(#SvgjsClipPath1012)"><rect width="1000" height="1000" fill="#ffffff"></rect><g transform="matrix(1.3671875,0,0,1.3671875,150,150)"><svg xmlns="http://www.w3.org/2000/svg" version="1.1" xmlns:xlink="http://www.w3.org/1999/xlink" xmlns:svgjs="http://svgjs.dev/svgjs" width="512" height="512"><svg xmlns="http://www.w3.org/2000/svg" width="512" height="512" viewBox="0 0 500 500" style="enable-background:new 0 0 512 512" xml:space="preserve">
    <linearGradient id="brainful" x1="92.916" x2="407.083" y1="407.084" y2="92.917" gradientUnits="userSpaceOnUse">
        <stop offset="0" stop-color="#e13fff"></stop>
        <stop offset=".09" stop-color="#c640fa"></stop>
        <stop offset=".339" stop-color="#8043ed"></stop>
        <stop offset=".563" stop-color="#4946e2"></stop>
        <stop offset=".755" stop-color="#2148da"></stop>
        <stop offset=".907" stop-color="#0949d6"></stop>
        <stop offset="1" stop-color="#0049d4"></stop>
    </linearGradient>
    <path fill="url(#brainful)" fill-rule="evenodd" d="M304.886 149.907c0 4.278-3.477 7.755-7.751 7.755s-7.751-3.477-7.751-7.755c0-4.273 3.477-7.75 7.751-7.75 4.275 0 7.751 3.477 7.751 7.75zm-2.398-121.038c-1.36 0-2.53.264-3.738 1.021L250 60.394 201.25 29.89a6.694 6.694 0 0 0-7.111 0L92.721 93.354a6.699 6.699 0 0 0-3.147 5.681v58.342l-50.906 29.391a6.7 6.7 0 0 0-3.35 5.804v114.857a6.705 6.705 0 0 0 3.35 5.804l50.906 29.386v58.347a6.695 6.695 0 0 0 3.147 5.68L194.14 470.11a6.711 6.711 0 0 0 7.111 0L250 439.607l48.75 30.504a6.699 6.699 0 0 0 7.11 0l101.419-63.464a6.7 6.7 0 0 0 3.147-5.68V342.62l50.906-29.386a6.71 6.71 0 0 0 3.35-5.804V192.572a6.702 6.702 0 0 0-3.35-5.804l-50.906-29.391V99.035a6.703 6.703 0 0 0-3.147-5.681L305.86 29.89a6.69 6.69 0 0 0-3.372-1.021zm44.64 104.619c0-4.273 3.477-7.75 7.75-7.75 4.274 0 7.751 3.477 7.751 7.75 0 4.272-3.477 7.749-7.751 7.749-4.274.001-7.75-3.476-7.75-7.749zm-.695 119.93c0-4.273 3.477-7.755 7.751-7.755s7.751 3.482 7.751 7.755-3.477 7.75-7.751 7.75c-4.275 0-7.751-3.477-7.751-7.75zm-29.016 133.264c0 4.273-3.479 7.75-7.753 7.75-4.272 0-7.751-3.477-7.751-7.75s3.479-7.75 7.751-7.75c4.274 0 7.753 3.477 7.753 7.75zM451.28 303.56V196.441l-50.906-29.391a6.704 6.704 0 0 1-3.35-5.804v-58.503l-49.218-30.794-43.957 29.725-.067 28.161c8.416 2.789 14.506 10.732 14.506 20.073 0 11.667-9.489 21.153-21.152 21.153-11.664 0-21.153-9.486-21.153-21.153 0-9.297 6.036-17.214 14.397-20.04l.076-31.772a6.712 6.712 0 0 1 2.947-5.536l41.978-28.386-33.076-20.696-45.603 28.532v159.736l91.477-51.549v-26.651c-8.386-2.811-14.451-10.738-14.451-20.056 0-11.662 9.489-21.153 21.152-21.153 11.664 0 21.152 9.491 21.152 21.153 0 9.319-6.063 17.246-14.451 20.056v30.563a6.71 6.71 0 0 1-3.411 5.842l-101.467 57.181v180.857l45.603 28.537 40.165-25.135-24.328-25.334c-13.875 6.087-29.629-4.09-29.629-19.374 0-9.324 6.065-17.251 14.451-20.062v-83.042a6.706 6.706 0 0 1 2.987-5.578l27.943-18.611c-3.97-13.494 6.159-27.123 20.29-27.123 11.664 0 21.152 9.491 21.152 21.153 0 17.408-19.934 27.284-33.771 16.966l-25.198 16.784v79.452c12.579 4.216 18.254 18.886 11.718 30.439l25.991 27.07 42.947-26.876v-135.19c-8.221-2.907-14.128-10.748-14.128-19.949 0-11.667 9.491-21.158 21.152-21.158 11.664 0 21.153 9.491 21.153 21.158 0 9.437-6.218 17.455-14.775 20.169v64.861zm-47.232-53.694c-4.272 0-7.751-3.477-7.751-7.75 0-4.278 3.479-7.755 7.751-7.755 4.274 0 7.751 3.477 7.751 7.755 0 4.273-3.477 7.75-7.751 7.75zM202.865 142.157c4.274 0 7.751 3.477 7.751 7.75 0 4.278-3.477 7.755-7.751 7.755s-7.75-3.477-7.75-7.755c-.001-4.273 3.476-7.75 7.75-7.75zm-49.298 111.261c0 4.273-3.477 7.75-7.751 7.75s-7.751-3.477-7.751-7.75 3.477-7.755 7.751-7.755c4.275 0 7.751 3.483 7.751 7.755zm29.016 133.264c0-4.273 3.477-7.75 7.751-7.75s7.751 3.477 7.751 7.75-3.477 7.75-7.751 7.75-7.751-3.478-7.751-7.75zm-37.461-245.444c-4.274 0-7.751-3.477-7.751-7.749 0-4.273 3.477-7.75 7.751-7.75 4.272 0 7.75 3.477 7.75 7.75 0 4.272-3.478 7.749-7.75 7.749zm98.177 90.506-91.477-51.549v-26.651c8.387-2.811 14.452-10.738 14.452-20.056 0-11.662-9.489-21.153-21.153-21.153s-21.152 9.491-21.152 21.153c0 9.319 6.063 17.246 14.452 20.056v30.563a6.708 6.708 0 0 0 3.411 5.842l101.467 57.181v180.857l-45.605 28.537-40.164-25.135 24.329-25.334c13.873 6.086 29.627-4.089 29.627-19.374 0-9.324-6.063-17.251-14.452-20.062v-83.042a6.704 6.704 0 0 0-2.985-5.578l-27.943-18.611c3.971-13.498-6.162-27.123-20.29-27.123-11.664 0-21.152 9.491-21.152 21.153 0 17.407 19.932 27.285 33.771 16.966l25.197 16.784v79.452c-12.581 4.216-18.254 18.888-11.718 30.439l-25.991 27.07-42.948-26.876V262.065c8.219-2.907 14.127-10.748 14.127-19.949 0-11.667-9.489-21.158-21.153-21.158s-21.152 9.491-21.152 21.158c0 9.437 6.22 17.455 14.777 20.169v64.861L48.721 303.56V196.441l50.906-29.391a6.704 6.704 0 0 0 3.35-5.804v-58.503l49.216-30.794 43.959 29.725.067 28.161c-8.416 2.789-14.506 10.732-14.506 20.073 0 11.667 9.489 21.153 21.153 21.153s21.152-9.486 21.152-21.153c0-9.297-6.037-17.214-14.397-20.04l-.078-31.772a6.705 6.705 0 0 0-2.945-5.536L164.62 64.172l33.074-20.696 45.605 28.532zM95.95 249.866c-4.272 0-7.751-3.477-7.751-7.75 0-4.278 3.479-7.755 7.751-7.755 4.274 0 7.751 3.477 7.751 7.755 0 4.273-3.477 7.75-7.751 7.75z" clip-rule="evenodd" data-original="url(#brainful)"></path>
</svg></svg></g></g><defs><clipPath id="SvgjsClipPath1012"><rect width="1000" height="1000" x="0" y="0" rx="350" ry="350"></rect></clipPath></defs></svg></g><g id="dark-icon"><svg xmlns="http://www.w3.org/2000/svg" version="1.1" xmlns:xlink="http://www.w3.org/1999/xlink" xmlns:svgjs="http://svgjs.dev/svgjs" width="1000" height="1000"><g clip-path="url(#SvgjsClipPath1013)"><rect width="1000" height="1000" fill="#ffffff"></rect><g transform="matrix(1.3671875,0,0,1.3671875,150,150)"><svg xmlns="http://www.w3.org/2000/svg" version="1.1" xmlns:xlink="http://www.w3.org/1999/xlink" xmlns:svgjs="http://svgjs.dev/svgjs" width="512" height="512"><svg xmlns="http://www.w3.org/2000/svg" width="512" height="512" viewBox="0 0 500 500" style="enable-background:new 0 0 512 512" xml:space="preserve">
    <linearGradient id="brainful" x1="92.916" x2="407.083" y1="407.084" y2="92.917" gradientUnits="userSpaceOnUse">
        <stop offset="0" stop-color="#e13fff"></stop>
        <stop offset=".09" stop-color="#c640fa"></stop>
        <stop offset=".339" stop-color="#8043ed"></stop>
        <stop offset=".563" stop-color="#4946e2"></stop>
        <stop offset=".755" stop-color="#2148da"></stop>
        <stop offset=".907" stop-color="#0949d6"></stop>
        <stop offset="1" stop-color="#0049d4"></stop>
    </linearGradient>
    <path fill="url(#brainful)" fill-rule="evenodd" d="M304.886 149.907c0 4.278-3.477 7.755-7.751 7.755s-7.751-3.477-7.751-7.755c0-4.273 3.477-7.75 7.751-7.75 4.275 0 7.751 3.477 7.751 7.75zm-2.398-121.038c-1.36 0-2.53.264-3.738 1.021L250 60.394 201.25 29.89a6.694 6.694 0 0 0-7.111 0L92.721 93.354a6.699 6.699 0 0 0-3.147 5.681v58.342l-50.906 29.391a6.7 6.7 0 0 0-3.35 5.804v114.857a6.705 6.705 0 0 0 3.35 5.804l50.906 29.386v58.347a6.695 6.695 0 0 0 3.147 5.68L194.14 470.11a6.711 6.711 0 0 0 7.111 0L250 439.607l48.75 30.504a6.699 6.699 0 0 0 7.11 0l101.419-63.464a6.7 6.7 0 0 0 3.147-5.68V342.62l50.906-29.386a6.71 6.71 0 0 0 3.35-5.804V192.572a6.702 6.702 0 0 0-3.35-5.804l-50.906-29.391V99.035a6.703 6.703 0 0 0-3.147-5.681L305.86 29.89a6.69 6.69 0 0 0-3.372-1.021zm44.64 104.619c0-4.273 3.477-7.75 7.75-7.75 4.274 0 7.751 3.477 7.751 7.75 0 4.272-3.477 7.749-7.751 7.749-4.274.001-7.75-3.476-7.75-7.749zm-.695 119.93c0-4.273 3.477-7.755 7.751-7.755s7.751 3.482 7.751 7.755-3.477 7.75-7.751 7.75c-4.275 0-7.751-3.477-7.751-7.75zm-29.016 133.264c0 4.273-3.479 7.75-7.753 7.75-4.272 0-7.751-3.477-7.751-7.75s3.479-7.75 7.751-7.75c4.274 0 7.753 3.477 7.753 7.75zM451.28 303.56V196.441l-50.906-29.391a6.704 6.704 0 0 1-3.35-5.804v-58.503l-49.218-30.794-43.957 29.725-.067 28.161c8.416 2.789 14.506 10.732 14.506 20.073 0 11.667-9.489 21.153-21.152 21.153-11.664 0-21.153-9.486-21.153-21.153 0-9.297 6.036-17.214 14.397-20.04l.076-31.772a6.712 6.712 0 0 1 2.947-5.536l41.978-28.386-33.076-20.696-45.603 28.532v159.736l91.477-51.549v-26.651c-8.386-2.811-14.451-10.738-14.451-20.056 0-11.662 9.489-21.153 21.152-21.153 11.664 0 21.152 9.491 21.152 21.153 0 9.319-6.063 17.246-14.451 20.056v30.563a6.71 6.71 0 0 1-3.411 5.842l-101.467 57.181v180.857l45.603 28.537 40.165-25.135-24.328-25.334c-13.875 6.087-29.629-4.09-29.629-19.374 0-9.324 6.065-17.251 14.451-20.062v-83.042a6.706 6.706 0 0 1 2.987-5.578l27.943-18.611c-3.97-13.494 6.159-27.123 20.29-27.123 11.664 0 21.152 9.491 21.152 21.153 0 17.408-19.934 27.284-33.771 16.966l-25.198 16.784v79.452c12.579 4.216 18.254 18.886 11.718 30.439l25.991 27.07 42.947-26.876v-135.19c-8.221-2.907-14.128-10.748-14.128-19.949 0-11.667 9.491-21.158 21.152-21.158 11.664 0 21.153 9.491 21.153 21.158 0 9.437-6.218 17.455-14.775 20.169v64.861zm-47.232-53.694c-4.272 0-7.751-3.477-7.751-7.75 0-4.278 3.479-7.755 7.751-7.755 4.274 0 7.751 3.477 7.751 7.755 0 4.273-3.477 7.75-7.751 7.75zM202.865 142.157c4.274 0 7.751 3.477 7.751 7.75 0 4.278-3.477 7.755-7.751 7.755s-7.75-3.477-7.75-7.755c-.001-4.273 3.476-7.75 7.75-7.75zm-49.298 111.261c0 4.273-3.477 7.75-7.751 7.75s-7.751-3.477-7.751-7.75 3.477-7.755 7.751-7.755c4.275 0 7.751 3.483 7.751 7.755zm29.016 133.264c0-4.273 3.477-7.75 7.751-7.75s7.751 3.477 7.751 7.75-3.477 7.75-7.751 7.75-7.751-3.478-7.751-7.75zm-37.461-245.444c-4.274 0-7.751-3.477-7.751-7.749 0-4.273 3.477-7.75 7.751-7.75 4.272 0 7.75 3.477 7.75 7.75 0 4.272-3.478 7.749-7.75 7.749zm98.177 90.506-91.477-51.549v-26.651c8.387-2.811 14.452-10.738 14.452-20.056 0-11.662-9.489-21.153-21.153-21.153s-21.152 9.491-21.152 21.153c0 9.319 6.063 17.246 14.452 20.056v30.563a6.708 6.708 0 0 0 3.411 5.842l101.467 57.181v180.857l-45.605 28.537-40.164-25.135 24.329-25.334c13.873 6.086 29.627-4.089 29.627-19.374 0-9.324-6.063-17.251-14.452-20.062v-83.042a6.704 6.704 0 0 0-2.985-5.578l-27.943-18.611c3.971-13.498-6.162-27.123-20.29-27.123-11.664 0-21.152 9.491-21.152 21.153 0 17.407 19.932 27.285 33.771 16.966l25.197 16.784v79.452c-12.581 4.216-18.254 18.888-11.718 30.439l-25.991 27.07-42.948-26.876V262.065c8.219-2.907 14.127-10.748 14.127-19.949 0-11.667-9.489-21.158-21.153-21.158s-21.152 9.491-21.152 21.158c0 9.437 6.22 17.455 14.777 20.169v64.861L48.721 303.56V196.441l50.906-29.391a6.704 6.704 0 0 0 3.35-5.804v-58.503l49.216-30.794 43.959 29.725.067 28.161c-8.416 2.789-14.506 10.732-14.506 20.073 0 11.667 9.489 21.153 21.153 21.153s21.152-9.486 21.152-21.153c0-9.297-6.037-17.214-14.397-20.04l-.078-31.772a6.705 6.705 0 0 0-2.945-5.536L164.62 64.172l33.074-20.696 45.605 28.532zM95.95 249.866c-4.272 0-7.751-3.477-7.751-7.75 0-4.278 3.479-7.755 7.751-7.755 4.274 0 7.751 3.477 7.751 7.755 0 4.273-3.477 7.75-7.751 7.75z" clip-rule="evenodd" data-original="url(#brainful)"></path>
</svg></svg></g></g><defs><clipPath id="SvgjsClipPath1013"><rect width="1000" height="1000" x="0" y="0" rx="350" ry="350"></rect></clipPath></defs></svg></g></svg>