<svg width="82" height="84" viewBox="0 0 82 84" fill="none" xmlns="http://www.w3.org/2000/svg">
  <metadata>
    <![CDATA[
      <rdf:RDF xmlns:rdf="http://www.w3.org/1999/02/22-rdf-syntax-ns#"
               xmlns:dc="http://purl.org/dc/elements/1.1/">
        <rdf:Description rdf:about="https://t.me/prisyachev">
          <dc:title>Brainful</dc:title>
          <dc:description>Brainful, logo for Library for web user interfacess</dc:description>
          <dc:creator>Vadim Prisyachev</dc:creator>
          <dc:date>2025-05-19</dc:date>
          <dc:rights>© 2025 Vadim Prisyachev. All rights reserved.</dc:rights>
        </rdf:Description>
      </rdf:RDF>
    ]]>
  </metadata>
  <path fill-rule="evenodd" clip-rule="evenodd" d="M70.8574 13.0723V24.457L82 35.6006V48.3994L70.8574 59.542V70.9277L51.8877 83.5732L41 72.6855L30.1123 83.5732L11.1426 70.9277V59.542L0 48.3994V35.6006L11.1426 24.457V13.0723L30.1123 0.426758L41 11.3145L51.8877 0.426758L70.8574 13.0723ZM15.1426 15.2129V26.1143L4 37.2568V46.7432L11.1426 53.8857V39.2256L31.8574 46.1299V58.1035C32.513 58.3897 33.1277 58.7996 33.6641 59.3359L33.873 59.5557C35.8943 61.7928 35.8943 65.2072 33.873 67.4443L33.6641 67.6641C31.4361 69.892 27.8674 69.9617 25.5557 67.873L25.3359 67.6641C23.0361 65.3642 23.0361 61.6358 25.3359 59.3359C26.0636 58.6083 26.9343 58.111 27.8574 57.8438V49.0127L15.1426 44.7744V68.7861L29.6025 78.4258L39 69.0293V37.8701L22.2861 32.2988V24.957C21.6653 24.7055 21.0781 24.3451 20.5557 23.873L20.3359 23.6641C18.0361 21.3642 18.0361 17.6358 20.3359 15.3359C22.6358 13.0361 26.3642 13.0361 28.6641 15.3359L28.873 15.5557C30.8943 17.7928 30.8943 21.2072 28.873 23.4443L28.6641 23.6641C27.9744 24.3538 27.1557 24.8353 26.2861 25.1113V29.415L39 33.6533V14.9707L29.6025 5.57324L15.1426 15.2129ZM43 14.9707V33.6533L55.7139 29.415V25.1113C54.9349 24.8641 54.1967 24.4522 53.5557 23.873L53.3359 23.6641C51.0361 21.3642 51.0361 17.6358 53.3359 15.3359C55.6358 13.0361 59.3642 13.0361 61.6641 15.3359L61.873 15.5557C63.8943 17.7928 63.8943 21.2072 61.873 23.4443L61.6641 23.6641C61.0887 24.2394 60.4233 24.6695 59.7139 24.957V32.2988L43 37.8701V69.0293L52.3965 78.4258L66.8574 68.7861V44.7744L54.1426 49.0127V57.8438C55.0657 58.111 55.9364 58.6083 56.6641 59.3359L56.873 59.5557C58.8943 61.7928 58.8943 65.2072 56.873 67.4443L56.6641 67.6641C54.4361 69.892 50.8674 69.9617 48.5557 67.873L48.3359 67.6641C46.0361 65.3642 46.0361 61.6358 48.3359 59.3359C48.8723 58.7996 49.487 58.3897 50.1426 58.1035V46.1299L70.8574 39.2256V53.8857L78 46.7432V37.2568L66.8574 26.1143V15.2129L52.3965 5.57324L43 14.9707ZM30.8359 62.1641C30.0982 61.4263 28.9018 61.4263 28.1641 62.1641C27.4263 62.9018 27.4263 64.0982 28.1641 64.8359L28.3076 64.9658C29.0496 65.5709 30.1444 65.5275 30.8359 64.8359L30.9658 64.6924C31.5305 63.9999 31.5305 63.0001 30.9658 62.3076L30.8359 62.1641ZM53.8359 62.1641C53.0982 61.4263 51.9018 61.4263 51.1641 62.1641C50.4263 62.9018 50.4263 64.0982 51.1641 64.8359L51.3076 64.9658C52.0496 65.5709 53.1444 65.5275 53.8359 64.8359L53.9658 64.6924C54.5305 63.9999 54.5305 63.0001 53.9658 62.3076L53.8359 62.1641ZM25.8359 18.1641C25.0982 17.4263 23.9018 17.4263 23.1641 18.1641C22.4263 18.9018 22.4263 20.0982 23.1641 20.8359L23.3076 20.9658C24.0496 21.5709 25.1444 21.5275 25.8359 20.8359L25.9658 20.6924C26.5305 19.9999 26.5305 19.0001 25.9658 18.3076L25.8359 18.1641ZM58.8359 18.1641C58.0982 17.4263 56.9018 17.4263 56.1641 18.1641C55.4263 18.9018 55.4263 20.0982 56.1641 20.8359L56.3076 20.9658C57.0496 21.5709 58.1444 21.5275 58.8359 20.8359L58.9658 20.6924C59.5305 19.9999 59.5305 19.0001 58.9658 18.3076L58.8359 18.1641Z" fill="black" style="fill:black;fill-opacity:1;"/>
  <path d="M43 14.9707V33.6533L55.7139 29.415V25.1113C54.9349 24.8641 54.1967 24.4522 53.5557 23.873L53.3359 23.6641C51.0361 21.3642 51.0361 17.6358 53.3359 15.3359C55.6358 13.0361 59.3642 13.0361 61.6641 15.3359L61.873 15.5557C63.8943 17.7928 63.8943 21.2072 61.873 23.4443L61.6641 23.6641C61.0887 24.2394 60.4233 24.6695 59.7139 24.957V32.2988L43 37.8701V69.0293L52.3965 78.4258L66.8574 68.7861V44.7744L54.1426 49.0127V57.8438C55.0657 58.111 55.9364 58.6083 56.6641 59.3359L56.873 59.5557C58.8943 61.7928 58.8943 65.2072 56.873 67.4443L56.6641 67.6641C54.4361 69.892 50.8674 69.9617 48.5557 67.873L48.3359 67.6641C46.0361 65.3642 46.0361 61.6358 48.3359 59.3359C48.8723 58.7996 49.487 58.3897 50.1426 58.1035V46.1299L70.8574 39.2256V53.8857L78 46.7432V37.2568L66.8574 26.1143V15.2129L52.3965 5.57324L43 14.9707Z" fill="black" fill-opacity="0.2" style="fill:black;fill-opacity:0.2;"/>
</svg>
